<svg width="106" height="100" viewBox="0 0 106 100" fill="none" xmlns="http://www.w3.org/2000/svg">
<path d="M35.9643 0C37.0097 0 37.8571 0.844746 37.8571 1.88679V10.3774C37.8571 11.4194 37.0097 12.2642 35.9643 12.2642H17.0357C15.9903 12.2642 15.1429 13.1089 15.1429 14.1509V85.8491C15.1429 86.8911 15.9903 87.7358 17.0357 87.7358H35.9643C37.0097 87.7358 37.8571 88.5806 37.8571 89.6226V98.1132C37.8571 99.1553 37.0097 100 35.9643 100H1.89286C0.847462 100 0 99.1553 0 98.1132V1.88679C0 0.844744 0.847461 0 1.89286 0H35.9643Z" fill="white"/>
<path d="M104.107 0C105.153 0 106 0.844746 106 1.88679V98.1132C106 99.1553 105.153 100 104.107 100H70.0357C68.9903 100 68.1429 99.1553 68.1429 98.1132V89.6226C68.1429 88.5806 68.9903 87.7358 70.0357 87.7358H88.9643C90.0097 87.7358 90.8571 86.8911 90.8571 85.8491V14.1509C90.8571 13.1089 90.0097 12.2642 88.9643 12.2642H70.0357C68.9903 12.2642 68.1429 11.4194 68.1429 10.3774V1.88679C68.1429 0.844746 68.9903 0 70.0357 0H104.107Z" fill="white"/>
<path d="M50.5361 21.6981C51.7798 21.6981 52.6855 22.8732 52.365 24.0711L38.2318 76.9012C38.0108 77.7272 37.2604 78.3019 36.4028 78.3019H25.178C23.9343 78.3019 23.0286 77.1268 23.349 75.9289L37.4823 23.0988C37.7033 22.2728 38.4537 21.6981 39.3112 21.6981H50.5361Z" fill="#5CB6F9"/>
<path d="M80.8217 21.6981C82.0654 21.6981 82.9711 22.8732 82.6506 24.0711L68.5174 76.9012C68.2964 77.7272 67.546 78.3019 66.6884 78.3019H55.4636C54.2199 78.3019 53.3142 77.1268 53.6346 75.9289L67.7679 23.0988C67.9888 22.2728 68.7393 21.6981 69.5968 21.6981H80.8217Z" fill="#5CB6F9"/>
</svg>
