<svg width="24" height="24" viewBox="0 0 24 24" fill="none" xmlns="http://www.w3.org/2000/svg">
<mask id="mask0_328_115" style="mask-type:luminance" maskUnits="userSpaceOnUse" x="0" y="2" width="24" height="20">
<path d="M23.9647 2.5H0V21.5H23.9647V2.5Z" fill="white"/>
</mask>
<g mask="url(#mask0_328_115)">
<path d="M23.5768 10.3056C22.9909 9.90858 21.445 9.73843 20.3226 10.0433C20.2591 8.92313 19.6873 7.97313 18.6285 7.15075L18.2403 6.88843L17.9791 7.28545C17.4709 8.0653 17.252 9.10746 17.3297 10.0504C17.3862 10.6317 17.5909 11.284 17.9791 11.759C16.5179 12.6097 15.1697 12.4183 9.20499 12.4183H0.000282705C-0.0279526 13.7724 0.190871 16.3743 1.83558 18.4869C2.01911 18.7209 2.21675 18.9478 2.43558 19.1675C3.77675 20.5146 5.79558 21.5 8.82381 21.5071C13.4403 21.5071 17.3932 19.0045 19.8003 12.9429C20.5909 12.9571 22.6803 13.0847 23.7038 11.0996C23.732 11.0642 23.965 10.575 23.965 10.575L23.5768 10.3127V10.3056ZM6.0144 9.07201H3.42381V11.6739H6.0144V9.07201ZM9.36028 9.07201H6.7697V11.6739H9.36028V9.07201ZM12.6991 9.07201H10.1085V11.6739H12.6991V9.07201ZM16.045 9.07201H13.4544V11.6739H16.045V9.07201ZM2.66852 9.07201H0.0779298V11.6739H2.66852V9.07201ZM6.0144 5.78246H3.42381V8.38433H6.0144V5.78246ZM9.36028 5.78246H6.7697V8.38433H9.36028V5.78246ZM12.6991 5.78246H10.1085V8.38433H12.6991V5.78246ZM12.6991 2.5H10.1085V5.10187H12.6991V2.5Z" fill="white"/>
</g>
</svg>
