<svg width="24" height="24" viewBox="0 0 24 24" fill="none" xmlns="http://www.w3.org/2000/svg">
<path d="M10.1886 7.91145C9.94498 7.87754 9.72434 7.9089 9.6127 7.99345C9.54998 8.041 9.53052 8.09609 9.52525 8.134C9.51125 8.23445 9.58161 8.34554 9.62489 8.40281C9.74725 8.565 9.92598 8.67645 10.1029 8.701C10.1285 8.70463 10.1541 8.70627 10.1794 8.70627C10.4744 8.70627 10.7427 8.47654 10.7663 8.307C10.7959 8.09463 10.4876 7.953 10.1886 7.91145ZM18.2599 7.91818C18.2366 7.75172 17.9404 7.70427 17.6593 7.74336C17.3786 7.78245 17.1064 7.90918 17.1292 8.076C17.1473 8.20572 17.3816 8.42718 17.6589 8.42718C17.6823 8.42718 17.706 8.42563 17.7298 8.42227C17.9149 8.39663 18.0507 8.27909 18.1152 8.21136C18.2134 8.10809 18.2703 7.993 18.2599 7.91818Z" fill="white"/>
<path d="M22.8909 15.0479C22.7878 14.7362 22.456 14.6359 21.9047 14.7497C20.2679 15.0875 19.6817 14.8535 19.4893 14.7118C20.7615 12.7736 21.8082 10.4307 22.3728 8.24482C22.6403 7.20937 22.788 6.24773 22.8001 5.46391C22.8135 4.60364 22.6669 3.97146 22.3647 3.58527C21.1464 2.02846 19.3582 1.19337 17.1936 1.17046C15.7055 1.15373 14.4483 1.53455 14.2045 1.64164C13.6913 1.514 13.1317 1.43564 12.5225 1.42564C11.4055 1.40755 10.4398 1.675 9.64036 2.22018C9.29309 2.09091 8.39564 1.78282 7.29809 1.606C5.40064 1.30055 3.89282 1.532 2.81682 2.29427C1.53291 3.20391 0.94018 4.82991 1.055 7.127C1.09363 7.89982 1.534 10.2773 2.22891 12.5541C3.14364 15.5508 4.138 17.2473 5.18418 17.5963C5.30664 17.6371 5.44782 17.6656 5.60354 17.6656C5.98518 17.6656 6.45309 17.4936 6.93991 16.9084C7.53369 16.1961 8.14791 15.501 8.78182 14.8242C9.19309 15.0449 9.64491 15.1682 10.107 15.1805C10.1079 15.1926 10.1091 15.2047 10.1102 15.2167C10.0306 15.3116 9.95275 15.4078 9.87654 15.5054C9.55636 15.9118 9.48973 15.9965 8.45909 16.2086C8.16591 16.2692 7.38727 16.4296 7.37582 16.9755C7.36345 17.5718 8.29627 17.8223 8.40254 17.8488C8.77291 17.9415 9.12973 17.9873 9.47 17.9873C10.2975 17.9873 11.0258 17.7153 11.6078 17.189C11.5899 19.315 11.6785 21.4099 11.9338 22.0482C12.1429 22.5707 12.6536 23.8477 14.2669 23.8476C14.5036 23.8476 14.7642 23.8201 15.0508 23.7586C16.7345 23.3977 17.4657 22.6535 17.7485 21.0129C17.8999 20.1361 18.1596 18.0424 18.2818 16.9193C18.5396 16.9997 18.8715 17.0365 19.2304 17.0365C19.9787 17.0365 20.8423 16.8775 21.3838 16.6261C21.9922 16.3435 23.09 15.6503 22.8909 15.0479ZM18.8813 7.45882C18.8757 7.79036 18.8301 8.09137 18.7817 8.40555C18.7296 8.74346 18.6758 9.09282 18.6623 9.51691C18.6489 9.92964 18.7005 10.3587 18.7503 10.7737C18.851 11.6119 18.9544 12.4748 18.5543 13.3263C18.4878 13.2085 18.4286 13.0868 18.377 12.9618C18.3273 12.8413 18.2193 12.6476 18.0697 12.3796C17.488 11.3364 16.1257 8.89327 16.8231 7.89637C17.0308 7.59964 17.558 7.29455 18.8813 7.45882ZM17.2773 1.84182C19.2167 1.88464 20.7509 2.61018 21.8371 3.99818C22.6702 5.06282 21.7528 9.90709 19.0971 14.0863C19.0704 14.0523 19.0435 14.0185 19.0165 13.9847L18.9829 13.9427C19.6692 12.8094 19.535 11.688 19.4155 10.6938C19.3665 10.2858 19.3201 9.90046 19.3319 9.53846C19.3441 9.15482 19.3948 8.82573 19.4439 8.50755C19.5042 8.11546 19.5655 7.70973 19.5486 7.23146C19.5613 7.18127 19.5664 7.122 19.5597 7.05164C19.5165 6.593 18.9929 5.22037 17.9256 3.978C17.3418 3.29846 16.4905 2.538 15.328 2.02509C15.828 1.92146 16.5117 1.82482 17.2773 1.84182ZM6.42473 16.48C5.88836 17.1249 5.518 17.0013 5.39618 16.9607C4.60254 16.696 3.68164 15.0185 2.86973 12.3585C2.16718 10.0569 1.75664 7.74246 1.72409 7.09346C1.62154 5.04091 2.11909 3.61046 3.203 2.84173C4.967 1.59082 7.86718 2.33955 9.03254 2.71927C9.01582 2.73582 8.99836 2.75127 8.98182 2.76809C7.06945 4.69937 7.11482 7.999 7.11954 8.20073C7.11936 8.27855 7.12591 8.38873 7.13482 8.54027C7.16773 9.09527 7.229 10.1282 7.06536 11.2979C6.91336 12.3849 7.24845 13.4488 7.98454 14.2169C8.06009 14.2956 8.13949 14.3705 8.22245 14.4413C7.89482 14.7922 7.18273 15.5682 6.42473 16.48ZM8.46827 13.7534C7.875 13.1343 7.60554 12.2732 7.72891 11.3906C7.90163 10.155 7.83791 9.07882 7.80364 8.50064C7.79882 8.41973 7.79454 8.34882 7.79209 8.29291C8.07145 8.04518 9.36609 7.35155 10.2894 7.56309C10.7106 7.65955 10.9674 7.94646 11.0741 8.43991C11.6265 10.9947 11.1472 12.0595 10.7621 12.9153C10.6827 13.0915 10.6077 13.2582 10.5437 13.4305L10.4941 13.5638C10.3685 13.9007 10.2515 14.214 10.1791 14.5115C9.54836 14.5096 8.93482 14.2402 8.46827 13.7533V13.7534ZM8.56509 17.1988C8.38091 17.1528 8.21527 17.0729 8.11809 17.0066C8.19927 16.9685 8.34373 16.9165 8.59427 16.8648C9.80673 16.6153 9.994 16.4391 10.4029 15.9199C10.4966 15.8008 10.6029 15.6659 10.7501 15.5015L10.7503 15.5014C10.9695 15.2559 11.0697 15.2975 11.2515 15.373C11.3989 15.4339 11.5425 15.6186 11.6006 15.8219C11.6282 15.9179 11.6591 16.1001 11.5579 16.2419C10.7037 17.4379 9.459 17.4225 8.56509 17.1988ZM14.9105 23.1035C13.4272 23.4214 12.902 22.6645 12.5559 21.7994C12.3325 21.2408 12.2227 18.7221 12.3006 15.9405C12.3016 15.9035 12.2964 15.8678 12.2862 15.8342C12.2771 15.7678 12.2632 15.7021 12.2447 15.6376C12.1289 15.2329 11.8466 14.8944 11.508 14.754C11.3735 14.6983 11.1265 14.596 10.8298 14.6719C10.8931 14.4112 11.0028 14.1167 11.1218 13.7979L11.1717 13.6638C11.2279 13.5126 11.2985 13.356 11.373 13.1902C11.776 12.2949 12.3279 11.0686 11.7289 8.29837C11.5045 7.26073 10.7553 6.754 9.61945 6.87173C8.93854 6.94218 8.31554 7.21691 8.00482 7.37446C7.938 7.40827 7.87691 7.441 7.81982 7.47282C7.90654 6.42736 8.23418 4.47355 9.45982 3.23737C10.2315 2.45918 11.2593 2.07482 12.5115 2.09555C14.9787 2.13591 16.5609 3.40209 17.4538 4.45727C18.2233 5.36646 18.6399 6.28237 18.8062 6.77637C17.5557 6.64918 16.7053 6.896 16.2742 7.51237C15.3363 8.85309 16.7873 11.4553 17.4846 12.7059C17.6125 12.9351 17.7229 13.1332 17.7576 13.2174C17.9847 13.7677 18.2787 14.1352 18.4934 14.4034C18.5592 14.4855 18.623 14.5653 18.6715 14.6349C18.2928 14.7441 17.6125 14.9964 17.6745 16.2574C17.6245 16.8901 17.269 19.8525 17.0884 20.8991C16.8499 22.2818 16.3411 22.7968 14.9105 23.1036V23.1035ZM21.1017 16.0185C20.7145 16.1982 20.0664 16.333 19.4507 16.362C18.7707 16.3938 18.4245 16.2858 18.3431 16.2194C18.3049 15.4335 18.5974 15.3515 18.9069 15.2645C18.9555 15.2509 19.003 15.2375 19.0488 15.2215C19.0773 15.2447 19.1085 15.2677 19.1426 15.2903C19.6892 15.651 20.664 15.6899 22.0403 15.4058L22.0554 15.4028C21.8697 15.5764 21.5521 15.8093 21.1017 16.0185Z" fill="white"/>
</svg>
