<svg width="24" height="24" viewBox="0 0 24 24" fill="none" xmlns="http://www.w3.org/2000/svg">
<path d="M19.3225 9.71811C19.3968 9.64461 19.4988 9.59886 19.6113 9.59886C19.837 9.59886 20.02 9.78186 20.02 10.0076C20.02 10.2334 19.837 10.4164 19.6113 10.4164C19.3855 10.4164 19.2025 10.2334 19.2025 10.0076C19.2025 9.89511 19.2483 9.79311 19.3218 9.71886L19.3225 9.71811ZM11.5068 3.42936C11.629 3.30111 11.8008 3.22086 11.992 3.22086C12.3618 3.22086 12.661 3.52011 12.661 3.88986C12.661 4.25961 12.3618 4.55886 11.992 4.55886C11.6823 4.55886 11.422 4.34886 11.3455 4.06311L11.3448 4.05861C11.3313 4.00761 11.323 3.94986 11.323 3.88986C11.323 3.71136 11.3928 3.54936 11.5068 3.42936ZM20.224 12.4256C20.224 12.6304 20.2165 12.8344 20.2015 13.0361H19.3578C19.2738 13.0361 19.2393 13.0909 19.2393 13.1749V13.5619C19.2393 14.4739 18.7248 14.6719 18.274 14.7221C17.845 14.7709 17.3695 14.5429 17.311 14.2804C17.2443 13.3316 16.7313 12.5156 15.982 12.0349L15.9708 12.0281C16.8753 11.5834 17.5173 10.7261 17.6553 9.70836L17.6568 9.69261C17.62 8.77086 17.1168 7.97511 16.378 7.52961L16.366 7.52286C15.8658 7.19436 15.262 6.98361 14.6118 6.94311L14.6013 6.94236H5.8788C7.05555 5.63061 8.6373 4.70211 10.426 4.35486L10.4778 4.34661L11.506 5.42511C11.617 5.54136 11.773 5.61411 11.9463 5.61411C12.1098 5.61411 12.2575 5.54961 12.367 5.44461L13.5168 4.34436C15.9415 4.81086 17.9515 6.28911 19.123 8.31261L19.144 8.35236L18.3565 10.1314C18.3235 10.2041 18.3048 10.2889 18.3048 10.3781C18.3048 10.6249 18.451 10.8379 18.6625 10.9346L18.6663 10.9361L20.1828 11.6096C20.209 11.8789 20.2225 12.1504 20.2225 12.4264L20.224 12.4256ZM10.1418 11.0329V9.48561H12.916C13.0593 9.48561 13.9278 9.65136 13.9278 10.3009C13.9278 10.8401 13.2618 11.0336 12.7143 11.0336L10.1418 11.0329ZM3.8298 11.5421L5.2683 10.9024C5.48355 10.8049 5.63055 10.5926 5.63055 10.3459C5.63055 10.2559 5.61105 10.1711 5.57655 10.0946L5.57805 10.0984L5.2818 9.42861H6.4473V14.6794H4.0968C3.8973 14.0051 3.7833 13.2311 3.7833 12.4294C3.7833 12.1166 3.80055 11.8076 3.83505 11.5039L3.8313 11.5414L3.8298 11.5421ZM4.6128 9.68511C4.6128 9.46386 4.43355 9.28461 4.2123 9.28461C3.99105 9.28461 3.8118 9.46386 3.8118 9.68511C3.8118 9.90636 3.99105 10.0856 4.2123 10.0856C4.43355 10.0856 4.6128 9.90636 4.6128 9.68511ZM7.1613 20.0201C7.11555 20.0314 7.0638 20.0374 7.0098 20.0374C6.64005 20.0374 6.3408 19.7381 6.3408 19.3684C6.3408 18.9986 6.64005 18.6994 7.0098 18.6994C7.37955 18.6994 7.6788 18.9986 7.6788 19.3684C7.6788 19.4404 7.66755 19.5101 7.64655 19.5754L7.64805 19.5709C7.5753 19.7959 7.39305 19.9654 7.1658 20.0201H7.1613ZM16.453 17.8834C16.4148 17.8744 16.3705 17.8699 16.3248 17.8699C16.0338 17.8699 15.79 18.0746 15.7308 18.3484L15.73 18.3521L15.3948 19.9159C14.398 20.3771 13.2318 20.6464 12.0025 20.6464C10.7463 20.6464 9.5553 20.3651 8.48955 19.8619L8.5398 19.8829L8.20455 18.3191C8.14455 18.0424 7.90155 17.8376 7.61055 17.8376C7.5648 17.8376 7.52055 17.8429 7.4778 17.8519L7.48155 17.8511L6.1008 18.1474C5.8518 17.8916 5.6178 17.6171 5.40255 17.3276L5.3868 17.3059H12.1045C12.1803 17.3059 12.2313 17.2924 12.2313 17.2234V14.8466C12.2313 14.7776 12.181 14.7641 12.1045 14.7641H10.1395V13.2574H12.265C12.9258 13.2641 13.4703 13.7494 13.5708 14.3824L13.5715 14.3899C13.6563 14.7206 13.8408 15.7999 13.9683 16.1449C14.0943 16.5319 14.6088 17.3051 15.157 17.3051H18.5043C18.5478 17.3044 18.5898 17.2999 18.6303 17.2924L18.6258 17.2931C18.3813 17.6231 18.1323 17.9141 17.8638 18.1871L17.8645 18.1864L16.453 17.8834ZM16.774 20.0524C17.6215 20.0524 18.3085 19.3646 18.3085 18.5171C18.3085 17.6696 17.6215 16.9819 16.7733 16.9819C15.925 16.9819 15.238 17.6689 15.238 18.5171C15.238 19.3646 15.925 20.0516 16.7725 20.0524H16.774ZM23.092 12.2216L22.1478 11.6374C22.1398 11.5454 22.131 11.4536 22.1215 11.3621L22.933 10.6061C22.996 10.5469 23.035 10.4621 23.035 10.3691C23.035 10.2311 22.9488 10.1126 22.8273 10.0646L22.825 10.0639L21.7878 9.67611C21.7623 9.58661 21.735 9.49736 21.706 9.40836L22.3533 8.50986C22.3915 8.45736 22.4148 8.39136 22.4148 8.32011C22.4148 8.15886 22.2978 8.02536 22.144 7.99986H22.1418L21.0483 7.82211C21.0058 7.73961 20.9618 7.65761 20.9163 7.57611L21.3753 6.56736C21.394 6.52761 21.4045 6.48186 21.4045 6.43236C21.4045 6.36486 21.3843 6.30261 21.3483 6.25086L21.349 6.25161C21.2898 6.16386 21.19 6.10686 21.0775 6.10686C21.0738 6.10686 21.07 6.10686 21.0663 6.10686H21.067L19.957 6.14586C19.9 6.07386 19.8415 6.00311 19.7815 5.93361L20.0365 4.85286C20.0418 4.83036 20.0448 4.80486 20.0448 4.77861C20.0448 4.59861 19.8993 4.45311 19.7193 4.45311C19.693 4.45311 19.6675 4.45611 19.6428 4.46211L19.645 4.46136L18.5643 4.71636C18.4938 4.65686 18.4225 4.59836 18.3505 4.54086L18.3895 3.43086C18.3895 3.42636 18.3895 3.42111 18.3895 3.41511C18.3895 3.23661 18.2448 3.09261 18.067 3.09261C18.0175 3.09261 17.9703 3.10386 17.9283 3.12411L17.9305 3.12336L16.9218 3.58386C16.84 3.53961 16.7583 3.49461 16.6758 3.45186L16.4973 2.35761C16.4703 2.20236 16.336 2.08611 16.1755 2.08611C16.105 2.08611 16.039 2.10861 15.9858 2.14686L15.9865 2.14611L15.0873 2.79336C14.9988 2.76486 14.9095 2.73811 14.8195 2.71311L14.4318 1.67586C14.3838 1.55211 14.2653 1.46586 14.1265 1.46586C14.0335 1.46586 13.9495 1.50486 13.8895 1.56786L13.1335 2.38011C13.042 2.36961 12.9503 2.36086 12.8583 2.35386L12.274 1.40961C12.2155 1.31661 12.1143 1.25586 11.998 1.25586C11.8818 1.25586 11.7798 1.31661 11.7228 1.40886L11.722 1.41036L11.1378 2.35461C11.0458 2.36261 10.954 2.37136 10.8625 2.38086L10.105 1.56861C10.0458 1.50486 9.96105 1.46511 9.8673 1.46511C9.72855 1.46511 9.61005 1.55211 9.56355 1.67436L9.5628 1.67661L9.17505 2.71386C9.08505 2.73936 8.99655 2.76711 8.9073 2.79411L8.0088 2.14686C7.9563 2.10936 7.89105 2.08686 7.8198 2.08686C7.65855 2.08686 7.52505 2.20311 7.49805 2.35686V2.35911L7.31955 3.45336C7.23705 3.49586 7.15505 3.53986 7.07355 3.58536L6.0648 3.12486C6.02505 3.10611 5.97855 3.09561 5.9298 3.09561C5.75055 3.09561 5.60505 3.24111 5.60505 3.42036C5.60505 3.42486 5.60505 3.42936 5.60505 3.43311L5.64405 4.54236C5.57205 4.59936 5.5008 4.65786 5.4303 4.71786L4.34955 4.46211C4.32705 4.45686 4.30155 4.45386 4.2753 4.45386C4.0953 4.45386 3.9498 4.59936 3.9498 4.77936C3.9498 4.80561 3.9528 4.83111 3.9588 4.85586L3.95805 4.85361L4.2123 5.93436C4.1538 6.00486 4.09455 6.07611 4.03755 6.14661L2.92755 6.10761C2.9238 6.10761 2.9193 6.10761 2.9148 6.10761C2.73555 6.10761 2.59005 6.25311 2.59005 6.43236C2.59005 6.48111 2.60055 6.52761 2.62005 6.56961L2.6193 6.56736L3.0798 7.57611C3.0343 7.65711 2.9903 7.73911 2.9478 7.82211L1.85505 7.99986C1.6998 8.02686 1.58355 8.16036 1.58355 8.32161C1.58355 8.39211 1.60605 8.45811 1.6443 8.51136L1.64355 8.51061L2.2908 9.40911C2.2628 9.49811 2.23555 9.58736 2.20905 9.67686L1.1718 10.0646C1.04805 10.1126 0.961797 10.2311 0.961797 10.3699C0.961797 10.4629 1.0008 10.5469 1.06305 10.6069L1.87455 11.3629C1.86405 11.4544 1.8553 11.5461 1.8483 11.6381L0.904047 12.2224C0.810297 12.2801 0.748047 12.3821 0.748047 12.4984C0.748047 12.6146 0.809547 12.7174 0.902547 12.7736L0.904047 12.7744L1.8483 13.3586C1.8558 13.4509 1.86555 13.5424 1.87455 13.6339L1.06305 14.3914C0.999297 14.4506 0.959547 14.5354 0.959547 14.6291C0.959547 14.7679 1.04655 14.8864 1.1688 14.9329L1.17105 14.9336L2.2083 15.3214C2.2338 15.4114 2.26155 15.5006 2.29005 15.5891L1.6428 16.4876C1.6038 16.5401 1.58055 16.6069 1.58055 16.6781C1.58055 16.8394 1.69905 16.9736 1.85355 16.9976H1.85505L2.9478 17.1754C2.99055 17.2579 3.03405 17.3396 3.0798 17.4214L2.6193 18.4301C2.60055 18.4699 2.59005 18.5164 2.59005 18.5651C2.59005 18.7444 2.73555 18.8899 2.9148 18.8899C2.9193 18.8899 2.9238 18.8899 2.92755 18.8899H2.9268L4.03605 18.8509C4.0938 18.9229 4.15155 18.9941 4.21155 19.0646L3.9573 20.1461C3.95205 20.1686 3.94905 20.1941 3.94905 20.2204C3.94905 20.3996 4.09455 20.5451 4.2738 20.5451C4.3008 20.5451 4.3263 20.5421 4.35105 20.5361L4.3488 20.5369L5.42955 20.2826C5.50005 20.3426 5.5713 20.4004 5.6433 20.4574L5.6043 21.5674C5.6043 21.5719 5.6043 21.5764 5.6043 21.5816C5.6043 21.7601 5.74905 21.9041 5.9268 21.9041C5.9763 21.9041 6.02355 21.8929 6.06555 21.8726L6.0633 21.8734L7.07205 21.4144C7.1538 21.4601 7.23555 21.5036 7.31805 21.5464L7.49655 22.6391C7.52355 22.7944 7.65705 22.9114 7.8183 22.9114C7.8888 22.9114 7.95405 22.8889 8.00805 22.8506L8.0073 22.8514L8.9058 22.2041C8.9948 22.2326 9.08405 22.2599 9.17355 22.2859L9.5613 23.3231C9.6078 23.4484 9.7263 23.5354 9.86505 23.5354C9.9588 23.5354 10.0435 23.4956 10.1028 23.4311L10.8603 22.6196C10.951 22.6301 11.0433 22.6384 11.1355 22.6474L11.7198 23.5916C11.7783 23.6839 11.8803 23.7446 11.9958 23.7446C12.1113 23.7446 12.2133 23.6839 12.271 23.5924L12.2718 23.5909L12.856 22.6466C12.9483 22.6384 13.0398 22.6294 13.1313 22.6189L13.8873 23.4304C13.9465 23.4934 14.0313 23.5324 14.1243 23.5324C14.2623 23.5324 14.3808 23.4461 14.4288 23.3246L14.4295 23.3224L14.8173 22.2851C14.9068 22.2596 14.996 22.2324 15.085 22.2034L15.9835 22.8506C16.036 22.8896 16.1028 22.9129 16.174 22.9129C16.3353 22.9129 16.4695 22.7944 16.4935 22.6399V22.6384L16.672 21.5456C16.7545 21.5029 16.8363 21.4586 16.918 21.4136L17.9268 21.8726C17.9658 21.8906 18.0123 21.9011 18.061 21.9011C18.241 21.9011 18.3865 21.7556 18.3865 21.5756C18.3865 21.5719 18.3865 21.5689 18.3865 21.5651L18.3475 20.4559C18.4195 20.3994 18.4903 20.3411 18.5598 20.2811L19.6405 20.5354C19.663 20.5406 19.6885 20.5436 19.714 20.5436C19.894 20.5436 20.0395 20.3981 20.0395 20.2181C20.0395 20.1919 20.0365 20.1671 20.0305 20.1431L20.0313 20.1454L19.777 19.0639C19.8355 18.9934 19.8948 18.9229 19.9518 18.8501L21.0618 18.8891C21.0663 18.8891 21.0715 18.8891 21.0768 18.8891C21.2553 18.8891 21.3993 18.7444 21.3993 18.5666C21.3993 18.5171 21.388 18.4699 21.3678 18.4279L21.3685 18.4301L20.9095 17.4214C20.9538 17.3396 20.9988 17.2579 21.0415 17.1754L22.1343 16.9976C22.2895 16.9706 22.4058 16.8364 22.4058 16.6759C22.4058 16.6054 22.3833 16.5394 22.345 16.4861L22.3458 16.4869L21.6985 15.5884L21.7803 15.3206L22.8175 14.9329C22.942 14.8856 23.029 14.7671 23.029 14.6284C23.029 14.5346 22.9893 14.4499 22.9255 14.3906L22.114 13.6331C22.1238 13.5424 22.1328 13.4501 22.1403 13.3579L23.0845 12.7736C23.1783 12.7159 23.2405 12.6139 23.2405 12.4976C23.2405 12.3814 23.179 12.2794 23.086 12.2224L23.0845 12.2216H23.092Z" fill="white"/>
</svg>
